HIERARCHY
ROOT SpineBase
{
  OFFSET 0.000000 0.000000 0.000000
  CHANNELS 6 Xposition Yposition Zposition Zrotation Xrotation Yrotation
  JOINT SpineMid
  {
    OFFSET 0.000000 24.885423 0.000000
    CHANNELS 3 Zrotation Xrotation Yrotation
    JOINT SpineShoulder
    {
      OFFSET 0.161319 18.605433 -1.001730
      CHANNELS 3 Zrotation Xrotation Yrotation
      JOINT Neck
      {
        OFFSET 0.092186 6.203730 -0.630240
        CHANNELS 3 Zrotation Xrotation Yrotation
        JOINT Head
        {
          OFFSET 2.269464 14.084833 -2.096821
          CHANNELS 3 Zrotation Xrotation Yrotation
          End Site
          {
            OFFSET 0 0 0
          }
        }
      }
      JOINT ShoulderLeft
      {
        OFFSET -10.714886 -2.413808 -9.475168
        CHANNELS 3 Zrotation Xrotation Yrotation
        JOINT ElbowLeft
        {
          OFFSET 3.967400 -23.237552 -5.352669
          CHANNELS 3 Zrotation Xrotation Yrotation
          JOINT WristLeft
          {
            OFFSET 11.753919 -17.943503 -16.488590
            CHANNELS 3 Zrotation Xrotation Yrotation
            JOINT HandLeft
            {
              OFFSET 3.972813 -4.841046 -5.697625
              CHANNELS 3 Zrotation Xrotation Yrotation
              JOINT HandTipLeft
              {
                OFFSET 2.883626 -6.132118 -2.516860
                CHANNELS 3 Zrotation Xrotation Yrotation
                End Site
                {
                  OFFSET 0 0 0
                }
              }
              JOINT ThumbLeft
              {
                OFFSET 3.359346 2.803026 -1.283589
                CHANNELS 3 Zrotation Xrotation Yrotation
                End Site
                {
                  OFFSET 0 0 0
                }
              }
            }
          }
        }
      }
      JOINT ShoulderRight
      {
        OFFSET 14.758508 -2.325098 8.711494
        CHANNELS 3 Zrotation Xrotation Yrotation
        JOINT ElbowRight
        {
          OFFSET 6.486653 -25.002400 -2.009086
          CHANNELS 3 Zrotation Xrotation Yrotation
          JOINT WristRight
          {
            OFFSET 6.105172 -14.488130 -16.467739
            CHANNELS 3 Zrotation Xrotation Yrotation
            JOINT HandRight
            {
              OFFSET 1.313809 -2.855508 -2.634899
              CHANNELS 3 Zrotation Xrotation Yrotation
              JOINT HandTipRight
              {
                OFFSET 1.164884 -3.199301 -3.009787
                CHANNELS 3 Zrotation Xrotation Yrotation
                End Site
                {
                  OFFSET 0 0 0
                }
              }
              JOINT ThumbRight
              {
                OFFSET 3.596170 0.855893 1.262086
                CHANNELS 3 Zrotation Xrotation Yrotation
                End Site
                {
                  OFFSET 0 0 0
                }
              }
            }
          }
        }
      }
    }
  }
  JOINT HipLeft
  {
    OFFSET -5.464086 1.482550 -5.957932
    CHANNELS 3 Zrotation Xrotation Yrotation
    JOINT KneeLeft
    {
      OFFSET 15.541401 -5.419021 -28.416485
      CHANNELS 3 Zrotation Xrotation Yrotation
      JOINT AnkleLeft
      {
        OFFSET 7.645532 -31.636275 -0.440984
        CHANNELS 3 Zrotation Xrotation Yrotation
        JOINT FootLeft
        {
          OFFSET 3.336136 -6.227631 -7.244078
          CHANNELS 3 Zrotation Xrotation Yrotation
          End Site
          {
            OFFSET 0 0 0
          }
        }
      }
    }
  }
  JOINT HipRight
  {
    OFFSET 6.015875 0.499523 0.603115
    CHANNELS 3 Zrotation Xrotation Yrotation
    JOINT KneeRight
    {
      OFFSET 32.504914 -5.593469 -10.790324
      CHANNELS 3 Zrotation Xrotation Yrotation
      JOINT AnkleRight
      {
        OFFSET 3.124902 -28.238033 -5.941562
        CHANNELS 3 Zrotation Xrotation Yrotation
        JOINT FootRight
        {
          OFFSET 6.130793 -3.262800 -10.615566
          CHANNELS 3 Zrotation Xrotation Yrotation
          End Site
          {
            OFFSET 0 0 0
          }
        }
      }
    }
  }
}
MOTION
Frames: 9
Frame Time: 0.033333
-36.539936 41.800378 331.543146 -0.000000 0.000000 -29.748903 -0.000000 0.000000 29.748903 -0.000000 0.000000 0.000000 -0.000000 0.000000 0.000000 0.000000 0.000000 0.000000 -0.000000 0.000000 0.000000 -0.000000 0.000000 0.000000 -0.000000 0.000000 0.000000 -0.000000 0.000000 0.000000 0.000000 0.000000 0.000000 0.000000 0.000000 0.000000 -0.000000 0.000000 0.000000 -0.000000 0.000000 0.000000 -0.000000 0.000000 0.000000 -0.000000 0.000000 0.000000 0.000000 0.000000 0.000000 0.000000 0.000000 0.000000 -0.000000 0.000000 29.748903 -0.000000 0.000000 0.000000 -0.000000 0.000000 0.000000 0.000000 0.000000 0.000000 -0.000000 0.000000 29.748903 -0.000000 0.000000 0.000000 -0.000000 0.000000 0.000000 0.000000 0.000000 0.000000
-36.466807 41.705362 331.692838 0.025361 -0.505701 -29.816370 -0.273454 0.426146 29.817499 -0.000000 0.000000 0.000000 -0.243945 -0.949962 0.114550 0.000000 0.000000 0.000000 0.750772 -0.476623 -0.251151 -0.983177 1.942030 1.418351 0.275686 -2.535060 -2.151417 -1.769206 1.460747 1.919138 0.000000 0.000000 0.000000 0.000000 0.000000 0.000000 -0.000000 0.000000 0.000000 -0.000000 0.000000 0.000000 -7.860404 3.708717 9.222455 -3.756043 2.986394 4.525697 0.000000 0.000000 0.000000 0.000000 0.000000 0.000000 -0.273454 0.426146 29.817499 -0.000000 0.000000 0.000000 0.949476 0.011296 -1.093501 0.000000 0.000000 0.000000 -0.273454 0.426146 29.817499 -0.000000 0.000000 0.000000 -0.000000 0.000000 0.000000 0.000000 0.000000 0.000000
-36.400978 41.624098 331.822499 0.032715 -0.980602 -29.925143 -0.517582 0.833534 29.929188 -0.000000 0.000000 0.000000 -0.444780 -1.767252 0.211085 0.000000 0.000000 0.000000 1.345855 -0.801542 -0.437288 -1.852316 3.431852 2.607380 0.433522 -4.828628 -4.096196 -3.606307 2.883730 3.928572 0.000000 0.000000 0.000000 0.000000 0.000000 0.000000 -0.152195 -1.016354 -0.253078 0.147728 1.017013 0.250417 -15.449746 6.002898 18.027419 -3.440636 3.167787 4.234639 0.000000 0.000000 0.000000 0.000000 0.000000 0.000000 -0.517582 0.833534 29.929188 -0.000000 0.000000 0.000000 1.713933 -0.015566 -1.986127 0.000000 0.000000 0.000000 -0.517582 0.833534 29.929188 -0.000000 0.000000 0.000000 -0.000000 0.000000 0.000000 0.000000 0.000000 0.000000
-36.342448 41.556586 331.932128 0.022098 -1.425076 -30.074408 -0.340321 0.413139 30.081152 0.065443 0.897008 -0.004769 -0.603653 -2.453154 0.291364 0.000000 0.000000 0.000000 1.808822 -0.990370 -0.569740 -2.609285 4.489480 3.568826 0.484925 -6.844727 -5.808202 -5.377757 4.211104 5.920639 0.000000 0.000000 0.000000 0.000000 0.000000 0.000000 -0.198466 -1.380863 -0.345202 -0.153730 1.986186 0.989645 -21.172319 6.739334 24.339924 -1.909138 2.261740 2.297124 0.000000 0.000000 0.000000 0.000000 0.000000 0.000000 -0.733377 1.222117 30.082504 -0.701630 -0.704527 -0.165057 2.991685 0.639940 -2.548103 0.000000 0.000000 0.000000 -0.733377 1.222117 30.082504 -0.000000 0.000000 0.000000 -0.000000 0.000000 0.000000 0.000000 0.000000 0.000000
-36.291217 41.502825 332.021725 -0.006480 -1.839469 -30.263097 -0.417562 0.501884 30.270802 -0.050686 0.253816 -0.006078 -0.556113 -2.067516 0.370105 0.000000 0.000000 0.000000 2.320541 -0.111684 -0.689927 -3.254296 5.129728 4.302781 0.445475 -8.543328 -7.253917 -6.880405 5.392373 7.728642 0.000000 0.000000 0.000000 0.000000 0.000000 0.000000 -0.059338 -0.708934 -0.409083 -0.275416 2.175990 1.193625 -25.215972 7.354841 29.154613 -0.736099 1.123770 0.473352 0.000000 0.000000 0.000000 0.000000 0.000000 0.000000 -1.049800 2.070321 30.948192 -0.960661 -1.319720 -0.877005 3.494505 0.711616 -3.014165 0.000000 0.000000 0.000000 -0.596413 2.132862 30.937612 -0.556944 -0.296735 -0.673827 -0.000000 0.000000 0.000000 0.000000 0.000000 0.000000
-36.247285 41.462816 332.091292 -0.053039 -2.224097 -30.489908 -0.476930 0.566492 30.497416 -0.058335 0.271725 -0.007825 -0.563590 -2.214759 0.428908 0.000000 0.000000 0.000000 2.632700 0.227780 -0.748156 -3.787036 5.362192 4.808031 0.336146 -9.882476 -8.394848 -7.861022 6.396328 9.138719 0.000000 0.000000 0.000000 0.000000 0.000000 0.000000 0.005626 -0.603827 -0.451753 -0.431611 2.140027 1.339692 -27.273793 7.908494 31.849611 -0.474844 0.137593 -0.599272 0.000000 0.000000 0.000000 0.000000 0.000000 0.000000 -1.240291 2.559719 31.307551 -1.064417 -1.553395 -1.031436 3.747985 0.718816 -3.283014 0.000000 0.000000 0.000000 -0.724977 2.567887 31.326760 -0.630503 -0.347315 -0.835519 -0.000000 0.000000 0.000000 0.000000 0.000000 0.000000
-36.198299 41.421850 332.151469 -0.085064 -2.589382 -30.735460 -0.554632 0.725233 30.744414 -0.076126 0.295483 -0.009021 -0.541359 -2.269943 0.463345 0.000000 0.000000 0.000000 2.584538 0.587748 -0.705626 -3.790353 4.564976 4.466366 0.309510 -9.363546 -7.968092 -5.868530 6.325763 7.857924 0.000000 0.000000 0.000000 0.000000 0.000000 0.000000 0.101228 -0.451773 -0.459895 -0.729686 1.675883 1.429797 -29.427177 7.315037 34.332453 1.121891 0.501669 -1.316209 0.000000 0.000000 0.000000 0.000000 0.000000 0.000000 -1.428104 2.816853 31.678041 -1.054115 -1.668373 -1.189943 4.119519 0.400610 -3.905116 0.000000 0.000000 0.000000 -0.780106 3.057843 31.676018 -0.814555 -0.424231 -0.942601 -0.000000 0.000000 0.000000 0.000000 0.000000 0.000000
-36.170698 41.405371 332.188787 -0.175468 -2.936767 -31.149843 -0.581155 0.731849 31.155107 -0.080814 0.260902 -0.011406 -0.405549 -2.095325 0.504323 0.000000 0.000000 0.000000 2.421913 1.154264 -0.617355 -3.790959 3.947773 4.371011 0.678662 -8.818897 -7.875571 -5.710058 6.545989 7.834215 0.000000 0.000000 0.000000 0.000000 0.000000 0.000000 0.203947 -0.162474 -0.474302 -0.940247 1.001373 1.393164 -23.791766 11.327172 29.813677 -3.451403 -0.827668 0.498665 0.000000 0.000000 0.000000 0.000000 0.000000 0.000000 -1.579244 3.370206 32.195071 -1.042272 -1.837830 -1.280964 3.614266 0.087895 -3.601807 0.000000 0.000000 0.000000 -0.882479 3.477579 32.296081 -0.878315 -0.478285 -1.149121 -0.000000 0.000000 0.000000 0.000000 0.000000 0.000000
-36.139754 41.401916 332.216306 -0.278853 -3.278422 -31.548202 -0.583335 0.645572 31.547576 -0.085630 0.195319 -0.014784 -0.179100 -1.688527 0.536551 0.000000 0.000000 0.000000 2.707822 2.033436 -0.605769 -4.379889 3.276929 4.588158 0.571440 -9.467741 -8.457404 -5.382311 5.727545 7.354180 0.000000 0.000000 0.000000 0.000000 0.000000 0.000000 0.369720 0.398344 -0.449681 -1.116122 0.233115 1.272248 -18.736175 12.235800 24.690792 -8.202628 -1.661699 3.610731 0.000000 0.000000 0.000000 0.000000 0.000000 0.000000 -1.744275 4.085860 32.757635 -1.037981 -2.112962 -1.422882 2.761535 0.094009 -2.779761 0.000000 0.000000 0.000000 -1.103982 3.753166 32.945606 -0.720329 0.329576 -1.306504 -1.448625 -3.614559 -0.857515 0.000000 0.000000 0.000000
